<?xml version="1.0" encoding="UTF-8"?>
<!-- Do not edit this file with editors other than draw.io -->
<!DOCTYPE svg PUBLIC "-//W3C//DTD SVG 1.1//EN" "http://www.w3.org/Graphics/SVG/1.1/DTD/svg11.dtd">
<svg xmlns="http://www.w3.org/2000/svg" style="background: #ffffff; background-color: light-dark(#ffffff, var(--ge-dark-color, #121212)); color-scheme: light dark;" xmlns:xlink="http://www.w3.org/1999/xlink" version="1.1" width="40px" height="40px" viewBox="-0.5 -0.5 40 40" content="&lt;mxfile host=&quot;app.diagrams.net&quot; agent=&quot;Mozilla/5.0 (Windows NT 10.0; Win64; x64) AppleWebKit/537.36 (KHTML, like Gecko) Chrome/138.0.0.0 Safari/537.36&quot; version=&quot;28.0.7&quot; scale=&quot;1&quot; border=&quot;0&quot;&gt;&#10;  &lt;diagram name=&quot;Page-1&quot; id=&quot;ly8wtQ-M4iVNOmdr0mFO&quot;&gt;&#10;    &lt;mxGraphModel dx=&quot;2066&quot; dy=&quot;1103&quot; grid=&quot;1&quot; gridSize=&quot;10&quot; guides=&quot;1&quot; tooltips=&quot;1&quot; connect=&quot;1&quot; arrows=&quot;1&quot; fold=&quot;1&quot; page=&quot;1&quot; pageScale=&quot;1&quot; pageWidth=&quot;850&quot; pageHeight=&quot;1100&quot; math=&quot;0&quot; shadow=&quot;0&quot;&gt;&#10;      &lt;root&gt;&#10;        &lt;mxCell id=&quot;0&quot; /&gt;&#10;        &lt;mxCell id=&quot;1&quot; parent=&quot;0&quot; /&gt;&#10;        &lt;mxCell id=&quot;KlZbTWGliqVugLXYpM-t-2&quot; value=&quot;&quot; style=&quot;shape=mxgraph.sap.icon;labelPosition=center;verticalLabelPosition=bottom;align=center;verticalAlign=top;strokeWidth=1;strokeColor=none;fillColor=#EDEFF0;gradientColor=#FCFCFC;gradientDirection=west;aspect=fixed;SAPIcon=SAP_HANA_Cloud&quot; vertex=&quot;1&quot; parent=&quot;1&quot;&gt;&#10;          &lt;mxGeometry x=&quot;320&quot; y=&quot;400&quot; width=&quot;40&quot; height=&quot;40&quot; as=&quot;geometry&quot; /&gt;&#10;        &lt;/mxCell&gt;&#10;      &lt;/root&gt;&#10;    &lt;/mxGraphModel&gt;&#10;  &lt;/diagram&gt;&#10;&lt;/mxfile&gt;&#10;"><defs><linearGradient x1="100%" y1="0%" x2="0%" y2="0%" id="drawio-svg-5tpRlFvtdN4p9s5AItNU-gradient-light-dark_fcfcfc_141414_-1-light-dark_edeff0_1f2021_-1-e-0"><stop offset="0%" stop-color="#EDEFF0" stop-opacity="1" style="stop-color: light-dark(rgb(237, 239, 240), rgb(31, 32, 33)); stop-opacity: 1;"/><stop offset="100%" stop-color="#FCFCFC" stop-opacity="1" style="stop-color: light-dark(rgb(252, 252, 252), rgb(20, 20, 20)); stop-opacity: 1;"/></linearGradient></defs><rect fill="#ffffff" width="100%" height="100%" x="0" y="0" style="fill: light-dark(#ffffff, var(--ge-dark-color, #121212));"/><g><g data-cell-id="0"><g data-cell-id="1"><g data-cell-id="KlZbTWGliqVugLXYpM-t-2"><g><ellipse cx="20" cy="20" rx="20" ry="20" fill="url(#drawio-svg-5tpRlFvtdN4p9s5AItNU-gradient-light-dark_fcfcfc_141414_-1-light-dark_edeff0_1f2021_-1-e-0)" stroke="none" pointer-events="all" style="fill: url(&quot;#drawio-svg-5tpRlFvtdN4p9s5AItNU-gradient-light-dark_fcfcfc_141414_-1-light-dark_edeff0_1f2021_-1-e-0&quot;);"/><g><svg viewBox="-0.5 -0.5 20.002 20" height="24" width="24" xmlns="http://www.w3.org/2000/svg" x="8" y="8" style="font-family: initial;">&#xa;	<defs>&#xa;		<linearGradient gradientUnits="userSpaceOnUse" y2="14.668" x2="11.548" y1="1.566" x1="2.502" id="A">&#xa;			<stop stop-color="#0195ff"/>&#xa;			<stop stop-color="#1147e9" offset=".991"/>&#xa;		</linearGradient>&#xa;		<linearGradient gradientUnits="userSpaceOnUse" y2="16.326" x2="15.43" y1="9.386" x1="7.242" id="B">&#xa;			<stop stop-color="#1348ff"/>&#xa;			<stop stop-color="#06238d" offset="1"/>&#xa;		</linearGradient>&#xa;	</defs>&#xa;	<path fill="url(#A)" d="M4.008 5.488C3.792 2.618 6.092-.5 9.378-.5c2.546 0 4.414 1.544 5.306 3.938 2.472-.172 4.818 1.93 4.818 4.95 0 1.92-.912 3.38-2.232 4.196v-2.552c0-.09-.008-.162-.012-.184l-.01-.078-.018-.098-.04-.172-.074-.238-.002-.002-.056-.13c-.424-1.11-1.426-1.834-2.418-2.266-1.092-.476-2.438-.724-3.876-.724s-2.784.246-3.876.72c-1.018.442-2.044 1.192-2.454 2.348-.09.206-.176.488-.176.828v3.278h-.676C.89 13.314-.5 11.662-.5 9.35c0-2.426 1.772-4.338 4.506-3.864z"/>&#xa;	<path fill="url(#B)" d="M10.766 7.642c2.556 0 4.542.89 4.928 2.122a.78.78 0 0 1 .078.266v6.908c0 1.458-2.152 2.562-5.004 2.562s-5.004-1.102-5.004-2.562v-6.9a.6.6 0 0 1 .072-.272c.392-1.24 2.378-2.122 4.934-2.122zm3.818 2.562c0-.546-1.524-1.376-3.818-1.376s-3.818.83-3.818 1.376 1.524 1.376 3.818 1.376 3.818-.83 3.818-1.376zm.144 3.048a.75.75 0 1 0-1.5 0v3.466a.75.75 0 1 0 1.5 0z" fill-rule="evenodd"/>&#xa;</svg></g></g></g></g></g></g></svg>